<?xml version="1.0" encoding="UTF-8"?><svg id="a" xmlns="http://www.w3.org/2000/svg" viewBox="0 0 794 236"><path d="M557.7,207.3c-17.1-.4-32.7-4.2-46.3-19.6-15.9-17.8-26.6-42-30.1-74.4-2-17.2.9-32.6,7-46.2,10.4-23.3,24.9-35.6,41.6-41.1,27.6-9,53.3.7,77.7,23.3,3.1,2.9,6,6.6,8.9,10.1,3.4,4,4,8.6,2.2,14.7-4.4,15-15.2,18.7-23.3,9.2-22.2-25.7-46.3-37.2-73.1-27.7-.8.2-1.6.7-2.3,1.1-12.4,6.2-17.3,19.8-14.1,40.9,3.3,21.6,10.8,38.7,21.2,52.4.7.9,2.5.2,3.4-.7,14.5-15.6,30.1-27.1,46.7-34.8,12.8-5.9,25.7-8.8,38.7-2.9,3,1.3,6,3.5,8.6,6.4,5.2,5.3,7.3,13.4,5.3,23.1-1.3,6.8-3.5,13.6-6.3,19.1-10,20.2-23.5,32.3-38.2,40.3-9.4,5.1-19,6.6-27.6,6.8v-.2ZM606.3,149.3c-9.8-14.1-47.2-2.9-59.8,17.4,21.4,6.6,41.7,7.5,59.8-17.4Z"/><path d="M295.5,157.7c7.8-7.2,15.2-14.6,23-21.3,12.5-10.9,25.8-18.9,40.8-20.9,2.9-.4,6-.2,8.9.6,7.3,2.1,12,10.1,12,20.5s-3.2,20.3-7.2,29.1c-18.5,41.3-55.7,57.7-87.4,37.8-20.7-13.1-33.6-36.7-40.5-66.7-5.9-25.5-3.1-48.6,9.5-69.2,15.8-25.9,35.6-42.9,59.7-48,19.4-4.3,37.1,2.7,51.5,22.2,6,8,11.3,16.8,16.9,25.5,2.6,4.1,2.8,8.6,1.2,13.5-3.1,9.2-8.4,15.2-15.5,17.4-3.8,1.2-6.7-.8-9.4-5.1-6.3-10.1-12.2-20.7-19.5-29.1-12.8-14.8-27.9-18.9-43.7-10.9-5.9,3.1-11.4,8-16.7,13.1-8.5,8.4-11.3,20.3-9.2,34.5,3.2,23.2,12,41.9,24.8,56.9l.9.6v-.4ZM314.9,171.3c9.4,3.3,17.9,3.5,26.4-.2,4.8-2.1,8.4-6.6,11-12.5.7-1.6,1.2-4.7.6-6.2s-2.8-2.5-4.1-2.3c-12.6,1.8-23,10.5-33.7,21.1h-.1Z"/><path d="M450,108.3v64.7c0,2.4.8,5.1,1.6,7.5,5.7,14.3-3.2,33.4-17.2,36.7-5.9,1.3-10.1-.4-13.5-5.9-4.2-6.6-5.5-14.3-5.3-22.2.4-25.7,1-51.7,1.6-77.4.4-14.7,1-29.3,1.6-44,0-1.3,0-2.9-.6-4-4.8-14.5,7.3-33.2,21.6-33,6.5,0,10.7,4.4,11.1,12.1.2,5.7-.4,11.7-.4,17.6v48.2h-.8l.2-.2Z"/><path d="M163.9,131.7c-1.9-22.3,3.4-36.1,10.4-48.5,7.6-13.4,15.6-26.5,24-38.7,4-5.9,9.3-9.6,14.5-13.4,1.7-1.2,5.5,0,6.5,1.9,1.1,2.1.9,7.3,0,10.1-1.9,5.4-4.7,10.3-7.3,15-4.8,8.2-9.8,16.4-14.8,24.4-2.8,4.5-4,9.1-3.6,15.5,1.6,22,3,44.3,4.5,66.3.6,8.7-1.1,15.9-4.5,22.5-4.8,9.1-10.4,16.4-18.2,19.5-5.3,2.1-8.1-.9-8.4-9.1-1.1-23.4-2-46.9-3-65.6l-.2.2Z"/></svg>