<?xml version="1.0" encoding="UTF-8"?><svg id="a" xmlns="http://www.w3.org/2000/svg" viewBox="0 0 686.4 197.8"><path d="M97.7,37.3v83.6h43.2v34.5H0v-34.5h46.4v-46.1l-39.9,11.5v-37.4l39.9-11.5h51.3Z" style="fill:#834a00;"/><path d="M331.2,116c0,19.2-14.2,42.3-81.1,42.3s-85.4-7.7-85.4-46.5v-27.9c0-38.8,32.7-46.6,85.4-46.6h71v29.4h-86.6c-7.1,0-24.1,1.2-24.1,12.7v3l4.7-.8c3-.5,8.9-1.1,17.4-1.5,8.5-.5,18.3-.6,29.3-.2s21.7,1.8,32.1,4c10.4,2.2,19.1,5.8,26.1,10.8,7.5,5.7,11.2,12.8,11.2,21.2ZM282.7,110.7c-4.6-2.9-11.4-4.7-20.7-5.4-9.3-.8-18.5-.9-27.7-.3-9.3.5-16.1,1.2-20.7,2.2l-3,.7v11.4c.3,2,2.7,9.1,40.1,9.1,8.1,0,34.7-.9,34.7-13.2s-.3-2.7-2.6-4.5Z" style="fill:#834a00;"/><path d="M452.8,37.3v83.6h43.2v34.5h-140.8v-34.5h46.4v-46.1l-39.9,11.5v-37.4l39.9-11.5h51.3Z" style="fill:#834a00;"/><path d="M686.4,116c0,19.2-14.2,42.3-81.1,42.3s-85.4-7.7-85.4-46.5v-27.9c0-38.8,32.7-46.6,85.4-46.6h71v29.4h-86.6c-7.1,0-24.1,1.2-24.1,12.7v3l4.7-.8c3-.5,8.9-1.1,17.4-1.5,8.5-.5,18.3-.6,29.3-.2s21.7,1.8,32.1,4c10.4,2.2,19.1,5.8,26.1,10.8,7.5,5.7,11.2,12.8,11.2,21.2ZM637.8,110.7c-4.6-2.9-11.4-4.7-20.7-5.4-9.3-.8-18.5-.9-27.7-.3-9.3.5-16.1,1.2-20.7,2.2l-3,.7v11.4c.3,2,2.7,9.1,40.1,9.1,8.1,0,34.7-.9,34.7-13.2s-.3-2.7-2.6-4.5Z" style="fill:#834a00;"/></svg>