<?xml version="1.0" encoding="UTF-8"?>
<svg xmlns="http://www.w3.org/2000/svg" version="1.1" viewBox="0 0 794 236">
  <defs>
    <style>
      .cls-1 {
        fill: #fff;
      }

      .cls-2 {
        fill: #834a00;
      }
    </style>
  </defs>
  <!-- Generator: Adobe Illustrator 28.7.2, SVG Export Plug-In . SVG Version: 1.2.0 Build 154)  -->
  <g>
    <g id="Layer_1">
      <path class="cls-1" d="M794,236H0V0h794v236ZM246.4,62c0-.2-.1-.5-.2-.7,2.4-1.3,4.7-2.8,7.1-4,10.3-5.5,21.1-10,32.6-12.3,8.6-1.8,18.9-9.6,18.1-21.6-.5-8.4-5.1-13.5-11-17.5-6.6-4.6-14.7-5.1-22.3-3.8-8.2,1.3-16.4,3.5-24.3,6.1-11.2,3.7-22,8.8-32.2,14.9-9.4,5.6-18.7,11.1-27.1,18.2-10.9,9.1-22,18-32.6,27.5-12.5,11.1-24.5,22.8-33.6,37-7.4,11.6-12.4,24-12.8,37.9-.1,4.4-.1,8.9.8,13.1,2,9.7,9.1,15.8,16.7,21.2,7,4.9,15.3,6.9,23.6,8.5,10.2,2,20.5,3.4,30.8,4.4,8.5.9,17.1,1.3,25.6,1.4,8.5,0,16.9-.3,25.4-.9,9.3-.7,18.6-1.6,27.8-2.9,7.9-1.1,15.6-2.9,23.4-4.5,12.8-2.6,25.1-7.1,37.1-12,11.6-4.7,22.8-10.3,32.9-18,5.6-4.3,10.6-9.1,14.8-14.7,4-5.3,6.1-11.4,6.8-18.1,1.1-10.5-.9-20.3-7.4-28.6-7.4-9.5-16.9-16.4-28-21.4-16.5-7.4-34.1-9.4-51.8-10.2-11.2-.5-22.4.6-33.6,1-2.2,0-4.4.3-6.6.5h0ZM538.9,136.6c0-.6-.2-1.2-.2-1.7.8-25.3,4.6-50,13.4-73.8.7-2,2.2-3.8,3.6-5.5,2.5-2.9,6.1-4.9,6.3-9.2.2-3.5.8-7.2-.1-10.4-3-9.8-10.2-15.9-19.9-18.3-4.2-1-8.8-.8-13.1-.7-9,.2-15.3,5.1-19.4,12.8-2.9,5.4-4.9,11.3-7.1,17-6.9,17.9-11.1,36.5-13.6,55.5-1.8,13.9-2.4,27.9-1.8,41.9.2,5.1,1.4,10.4,3,15.3,3.6,10.7,11.8,17.9,21,23.8,1.5.9,1.6,1.6,1,3.1-1.8,4.4-4,8.8-4.8,13.3-1.7,10.6,0,20.3,9.5,27.1,2.9,2,5.9,3.9,9.2,5.3,5.3,2.2,11,.9,16.5.9,1.3,0,2.7-.2,3.8-.8,6.6-3.2,11.5-7.8,13.7-15.1,1.9-6.3,4.4-12.3,6.8-18.4.3-.7,1.5-1.6,2.3-1.6,10.3.6,20.7,1.8,31,1.8,17.8,0,35.7,0,53.3-3.2,5.5-1,11.1-1.5,16.5-2.7,12.5-2.6,24.8-5.8,36.6-10.9,9.8-4.2,19.6-8.6,27.5-16.2,7.8-7.5,14.2-15.6,14.9-27,.4-6.9.5-13.8-2.7-20-4.2-8.2-10.5-14.7-17.9-20.1-6.2-4.5-13-7.5-20.2-10.1-13.8-5-28.1-7.7-42.6-8.5-11.9-.7-23.8-.1-35.8,1.5-15.3,2.2-29.7,7-43.3,13.9-11.9,6-22.2,14.4-31.8,23.7-5.5,5.4-10.5,11.3-16,17.2h0ZM49.3,235c6.6.3,13.4-.8,19.5-5,5-3.4,9.6-7.3,12.1-12.9,1.5-3.4,1.6-7.4,2-11.1.5-4.4.4-9.2-2.9-12.4-3-3-2.7-6.1-2.2-9.5,0-.7.1-1.3.2-2,2.6-23,5.2-46,7.8-69,.8-6.8,1.8-13.5,2.8-20.2.6-4.4,1.4-8.8,2.1-13.2.9-6.1,1.8-12.1,2.6-18.2,0-.5,0-1,.2-1.5.6-5,1.2-10,1.7-15,.1-1.2,0-2.5-.6-3.6-2.6-5.8-6.6-10.2-12.5-12.9-7.1-3.2-14.5-3-22-2.4-10,.9-17,6.3-22.6,14.1-.2.3-.4.7-.5,1.1-1.1,4.5-2.3,9.1-3.3,13.7-.8,3.6-1.5,7.3-2.2,10.9-.9,4.5-1.7,8.9-2.5,13.4-1,5.3-2,10.6-2.9,15.9-1.4,7.9-2.9,15.9-4,23.8-3.3,23.8-6.6,47.5-9.4,71.4-.8,6.6-.9,13.6.1,20.1,1.6,10.6,9.3,16.9,18.3,21.7,5.5,2.9,11.6,3.2,18.2,2.8h0ZM440.9,216.1c11.5,0,15.3-1.7,22-9.5,1.5-1.8,3.1-4,3.4-6.2.6-4,.8-8.1.3-12.1-.7-5.2-2.2-10.3-3.4-15.5-1.2-5.4-2.5-10.8-3.6-16.2-1.3-6.1-2.6-12.1-3.8-18.2-1.5-7.5-3-15.1-4.5-22.7-1-5-2-9.9-2.7-14.9-2.1-13.4-4.1-26.8-6.2-40.2-.3-1.7-.4-3.5-1-5.1-2.1-5.1-6.1-8.7-10.5-11.7-6-4.1-12.9-4.8-19.8-4.2-4.8.4-9.5,1.2-13.2,4.8-3.1,3-6.5,6-6.9,10.6-.4,4.3-.2,8.7.1,13,.4,4.6,1.4,9.1,2,13.6,1.2,8.1,2.2,16.1,3.4,24.2,1.5,10.2,3.2,20.5,4.8,30.7.8,5.3,1.6,10.6,2.5,16,.5,3.3,1.1,6.5,1.8,9.8,1.3,5.9,2.8,11.8,4,17.8.9,4.1,1.4,8.1,2.2,12.2.4,2.2.6,4.5,1.5,6.5,2.9,6.4,7.5,11.4,13.7,14.6,4.5,2.4,9.5,3.3,13.9,2.8h0Z"/>
      <path class="cls-2" d="M246.4,62c2.2-.2,4.4-.4,6.6-.5,11.2-.4,22.4-1.4,33.6-1,17.7.8,35.2,2.8,51.8,10.2,11.1,4.9,20.6,11.9,28,21.4,6.5,8.3,8.5,18.1,7.4,28.6-.7,6.7-2.8,12.8-6.8,18.1-4.2,5.6-9.1,10.4-14.8,14.7-10.1,7.7-21.3,13.2-32.9,18-12.1,4.9-24.3,9.4-37.1,12-7.8,1.6-15.6,3.4-23.4,4.5-9.2,1.3-18.5,2.2-27.8,2.9-8.4.6-16.9,1-25.4.9-8.5,0-17.1-.4-25.6-1.4-10.3-1.1-20.6-2.5-30.8-4.4-8.2-1.6-16.6-3.6-23.6-8.5-7.6-5.4-14.7-11.5-16.7-21.2-.9-4.2-.8-8.7-.8-13.1.3-13.9,5.3-26.3,12.8-37.9,9.1-14.3,21.1-25.9,33.6-37,10.6-9.4,21.7-18.3,32.6-27.5,8.4-7,17.7-12.6,27.1-18.2,10.2-6.1,20.9-11.1,32.2-14.9,7.9-2.6,16.1-4.8,24.3-6.1,7.7-1.2,15.8-.7,22.3,3.8,5.9,4.1,10.5,9.2,11,17.5.8,12-9.5,19.8-18.1,21.6-11.5,2.4-22.3,6.8-32.6,12.4-2.4,1.3-4.7,2.7-7.1,4,0,.2.1.5.2.7h0ZM316.6,115v-1.1c-1.7-.8-3.4-1.8-5.1-2.5-9-3.5-18.6-4.6-28.1-5-4-.2-8.1,0-12.2.5-8.9,1.1-17.8,2.2-26.6,3.9-9.8,1.9-19.1,5.4-28.1,9.7-5.1,2.4-9.8,5.5-14.6,8.4-4.6,2.7-3.7,7.7-4.8,12.1,42.4,2.2,82.5-5.2,119.5-26.1h0Z"/>
      <path class="cls-2" d="M538.9,136.6c5.4-5.9,10.5-11.8,16-17.2,9.5-9.3,19.8-17.7,31.8-23.7,13.7-6.9,28-11.8,43.3-13.9,11.9-1.7,23.8-2.2,35.8-1.5,14.6.8,28.8,3.5,42.6,8.5,7.1,2.6,14,5.6,20.2,10.1,7.4,5.4,13.7,11.9,17.9,20.1,3.2,6.3,3.2,13.2,2.7,20-.7,11.4-7.1,19.5-14.9,27-7.9,7.6-17.7,11.9-27.5,16.2-11.8,5-24.2,8.2-36.6,10.9-5.5,1.2-11,1.7-16.5,2.7-17.7,3.2-35.5,3.3-53.3,3.2-10.3,0-20.7-1.3-31-1.8-.8,0-2,.8-2.3,1.6-2.4,6.1-4.9,12.2-6.8,18.4-2.2,7.3-7.2,12-13.7,15.1-1.1.6-2.5.8-3.8.8-5.5,0-11.2,1.3-16.5-.9-3.2-1.3-6.3-3.2-9.2-5.3-9.5-6.7-11.3-16.5-9.5-27.1.8-4.6,3-8.9,4.8-13.3.6-1.5.4-2.2-1-3.1-9.2-5.9-17.4-13-21-23.8-1.7-4.9-2.8-10.1-3-15.3-.6-14,0-28,1.8-41.9,2.5-19,6.8-37.6,13.6-55.5,2.2-5.7,4.2-11.6,7.1-17,4-7.6,10.3-12.6,19.4-12.8,4.4,0,9-.3,13.1.7,9.8,2.5,16.9,8.5,19.9,18.3,1,3.2.3,6.9.1,10.4-.2,4.3-3.9,6.3-6.3,9.2-1.4,1.7-2.9,3.5-3.6,5.5-8.8,23.8-12.6,48.5-13.4,73.8,0,.6.1,1.1.2,1.7h0ZM697.2,129.6c-19.2-7.1-38.3-8.1-57.6-2.6-16.1,4.6-30.3,12.4-43,24.4,4.1.2,7.4.6,10.7.4,7.5-.4,15-1.1,22.5-1.8,5.7-.6,11.5-1.2,17.1-2.4,7.9-1.6,15.7-3.6,23.5-5.9,9.4-2.7,18.6-6,26.9-12.3h0Z"/>
      <path class="cls-2" d="M49.3,235c-6.7.5-12.7.1-18.2-2.8-9-4.8-16.7-11.1-18.3-21.7-1-6.6-.9-13.5-.1-20.1,2.9-23.8,6.2-47.6,9.4-71.4,1.1-8,2.6-15.9,4-23.8.9-5.3,1.9-10.6,2.9-15.9.8-4.5,1.7-8.9,2.5-13.4.7-3.6,1.4-7.3,2.2-10.9,1-4.6,2.2-9.1,3.3-13.7,0-.4.3-.8.5-1.1,5.6-7.8,12.6-13.3,22.6-14.1,7.5-.6,14.9-.8,22,2.4,5.9,2.6,9.9,7.1,12.5,12.9.5,1.1.7,2.5.6,3.6-.5,5-1.1,10-1.7,15,0,.5,0,1-.2,1.5-.9,6.1-1.7,12.1-2.6,18.2-.7,4.4-1.4,8.8-2.1,13.2-1,6.7-2,13.5-2.8,20.2-2.7,23-5.2,46-7.8,69,0,.7,0,1.3-.2,2-.5,3.4-.9,6.5,2.2,9.5,3.3,3.3,3.4,8,2.9,12.4-.4,3.8-.5,7.8-2,11.1-2.4,5.5-7.1,9.4-12.1,12.9-6.1,4.2-12.9,5.3-19.5,5h0Z"/>
      <path class="cls-2" d="M440.9,216.1c-4.4.5-9.4-.4-13.9-2.8-6.2-3.2-10.8-8.2-13.7-14.6-.9-2-1.1-4.3-1.5-6.5-.8-4.1-1.3-8.2-2.2-12.2-1.2-5.9-2.7-11.9-4-17.8-.7-3.2-1.3-6.5-1.8-9.8-.9-5.3-1.7-10.6-2.5-16-1.6-10.2-3.3-20.5-4.8-30.7-1.2-8.1-2.3-16.1-3.4-24.2-.6-4.5-1.6-9-2-13.6-.4-4.3-.5-8.7-.1-13,.4-4.6,3.7-7.6,6.9-10.6,3.7-3.6,8.5-4.4,13.2-4.8,7-.6,13.9,0,19.8,4.2,4.4,3,8.4,6.6,10.5,11.7.6,1.6.8,3.4,1,5.1,2.1,13.4,4.1,26.8,6.2,40.2.8,5,1.8,10,2.7,14.9,1.5,7.6,2.9,15.1,4.5,22.7,1.2,6.1,2.5,12.1,3.8,18.2,1.2,5.4,2.4,10.8,3.6,16.2,1.2,5.1,2.7,10.2,3.4,15.5.5,4,.3,8.1-.3,12.1-.3,2.2-1.9,4.4-3.4,6.2-6.7,7.8-10.5,9.5-22,9.5h0Z"/>
      <path class="cls-1" d="M316.6,115c-37,20.9-77.1,28.3-119.5,26.1,1.1-4.5.2-9.4,4.8-12.1,4.8-2.9,9.6-6,14.6-8.4,9-4.3,18.3-7.8,28.1-9.7,8.8-1.7,17.7-2.8,26.6-3.9,4-.5,8.1-.7,12.2-.5,9.6.5,19.1,1.6,28.1,5,1.8.7,3.4,1.7,5.1,2.5v1.1h0Z"/>
      <path class="cls-1" d="M697.2,129.6c-8.3,6.3-17.5,9.5-26.9,12.3-7.7,2.3-15.6,4.2-23.5,5.9-5.6,1.2-11.4,1.8-17.1,2.4-7.5.8-15,1.4-22.5,1.8-3.3.2-6.6-.2-10.7-.4,12.7-12.1,26.9-19.9,43-24.4,19.4-5.5,38.4-4.5,57.6,2.6h0Z"/>
    </g>
  </g>
</svg>