<?xml version="1.0" encoding="UTF-8"?><svg id="a" xmlns="http://www.w3.org/2000/svg" viewBox="0 0 704.4 231.9"><path d="M4.9,205.7c-.8-3.1-1.7-6.2-2.6-9.9-.6,0-1.5-.2-2.2-.3.5-4.6,1.9-8.9.7-13.6.9.2.4-5,.5-5.3,1.3-2.1,5.6-4.4,6.3-6,.7-1.4,1.6-2.6,2.4-3.9,0,0-.2-.2-.3-.3,1.2-1.5,2.4-2.9,3.6-4.4-.2-.4-.5-.8-.7-1.2-.9.4-1.7.9-2.6,1.3-.8-.9-1.5-2-2.4-2.6-1.6-1.2-2.6-.4-2.9,2.1-.6,2.8-1.9,2.9-3.6,1.8,0-1.2,0-2.4,0-3.6-.2-.6-.3-1.3-.5-1.9.8-1.8.3-3.7,0-5.5,1,0,2.2.4,3.1-.1.9-.6,2.1-1.8,2.3-3,.5-3.1.6-6.4.8-9.5.6-.2,1.5-.1,1.9-.6,2.1-2.8,4.2-5.1,7.4-5,10.3,0,20.7,0,31.3,0,0-7.4,0-14.4,0-21.4,0-.5-.2-1-.4-2.2-.8,1.5-1.2,3.1-1.8,3.2-2.8.6-5.3.5-8.2,2.5-3.6,2.4-8.4,1.8-12.7,2.2-2.3.3-4.7.1-7,.2-2.1-.7-4.3-1.2-6.4-2.1-.4-.2-.5-1.7-.7-2.6-.5-2.4-1-4.9-1.7-7.2,0-.3-1.1-.1-1.6-.2-.2-4.3-.5-8.6-.7-12.8.2-1.5.3-3,.5-4.6,0-1.2,0-2.4,0-3.7,0-1.5,0-3.1,0-4.6-.2-5.5-.3-11-.5-16.6.2-1.5.3-3,.5-4.6,0-.6,0-1.2.1-1.7.7-.8,1.8-1.4,2-2.4.3-1.9.1-3.9.1-5.9.9,0,1.9-.2,2.8-.3.2-.3.4-.5.6-.8,0-.6.1-1.2.2-1.8,3.2.5,1.6-2.8,2.1-4.5.7,0,1.3,0,2,0,.3.9.6,1.8,1,2.7.4-.9.9-1.8,1.3-2.7h3c1.2-4.1,3-6.4,6.5-5.7,1.1.2,2.5-1.3,3.7-1.8,1.1-.4,2.3-.4,3.5-.9,1-.4,1.9-1.1,2.8-1.7,1.6,0,3.2-.2,4.9-.3,1.1-.1,2.8,1.3,3-1.9,0-.4,1.7-.6,2.6-.9.5,0,.9,0,1.4,0,2,.6,3.5.1,4.2-2.8.2,0,.5,0,.7,0,.7,0,1.4,0,2.1,0,2.6,0,5.1,0,7.7,0,2.1,0,4.2,0,6.3,0,.2,0,.5,0,.7,0h5.6c.7,0,1.4,0,2.1,0,2.6,0,5.1,0,7.7,0,2.1,0,4.2,0,6.3,0h6.3c.7,0,1.4,0,2.1,0,2.6,0,5.1,0,7.7,0,2.1,3.4,4.8,5.3,8.3,6.1.7,1.2-1,4.9,2.1,4.2.1,1.7,0,4.9.4,5,2.8.7,1.5,3.4,1.7,5.2.2,2.1.1,4.2.2,6.3,0,5.5,0,11,0,16.5,0,4.3,0,8.6,0,12.8s0,11,0,16.5c0,4.3,0,8.6,0,12.8,0,5.5,0,11,0,16.5v5.4h14.6c2.3,0,4.7,0,7,0,.5,0,.9,0,1.4,0,2.6.4,5.2.7,7.8,1.1.5,3.7,2.8.9,4.1,1.9-.5,4.1,2.3,2,2.5,2.2,1.1,2.4,1.6,3.7,2.2,5,.3-1.5.6-3.1.9-4.6,0-.3,0-.6,0-.9v-19.3c0-1.8,0-3.7,0-5.5,0-1.5,0-3.1,0-4.6,0-4.6,0-9.2,0-13.8,0-.6,0-1.2.1-1.7.7-.7,1.9-1.4,2-2.2.3-2,0-4.1,0-6.1.5-1.8-.7-4.2,1.9-5.2.7-.3.3-4.9.4-7.6.4-.5,1-.9,1.3-1.4.6-1,1.4-2.1,1.6-3.3.3-1.6,0-3.4,0-5.6.5-.3,3.1,1.5,2.6-2.5,2.8-1.1,2.9-4.8,4.2-7.3.8-.9,1.8-1.7,2.3-2.8,1.4-3.4,4.5-2.5,6.4-4.6.5-.6.8-1.8,1.1-2.7,1-.9,3.2,1.8,3.3-1.9,2.1-1.3,4.3-2.5,6.4-3.8.5-.2,1-.3,1.4-.6.7-.6,1.4-1.4,2.1-2.1,3.7-.6,8,.2,10.8-2.1,2.1-1.8,4-1.8,6-2.5,1.9,0,3.8.2,5.7,0,.4,0,.8-1.1,1.2-1.7,1.4-.4,2.9-.7,4.3-1.1.2,0,.5,0,.7,0h4.2c.5,0,.9,0,1.4,0,.7,0,1.4,0,2.1,0,2.6,0,5.1,0,7.7,0,1.2,0,2.9,1.2,3-2,0-.3,1.6-.6,2.4-.6,1.7-.1,3.4-.1,5.1-.2,1.4,0,2.8,0,4.2,0,6.1,0,12.1,0,18.2,0,1.4,0,2.8,0,4.2,0,6.1,0,12.1,0,18.2,0,1.4,0,2.8,0,4.2,0,6.1,0,12.1,0,18.2,0,1.4,0,2.8,0,4.2,0,3.7,0,7.1.7,9.4,5.2.4.7,1.9.5,3,.7.8,3.1,1.5,6.2,2.4,9.3.1.4,1.2.4,1.8.6,0,2.7.1,5.5.2,8.2,0,.9,0,1.8,0,2.8.2,1.5.3,3.1.5,4.6-.2,4-.3,7.9-.5,11.9l-.2,13.7c-.2,0-.4,0-.6.2-2.9,0-.7,3.1-1.5,4.4-3.7-.4-1,4-2.5,5.1-2.7,2.3-6.5,2.4-7.8,6.7,1.1,1.2,2.1,1.9,2.8,2.9,2.8,3.8,5.5,7.7,9.8,8.4-.3,2.3.5,3,2.1,2.7-.3,3.7.3,6.7,3.5,7.8.1,0,.1.8.2,1.3-.7,2.6.5,3.8,2.1,4.6,0,2.9-.8,7.6.2,8.3,3,2.3,1.4,5.4,1.8,8.1.2,1.8,0,3.7,0,5.6.4.3.9.6,1.3.9.3-.8.5-1.7.8-2.5.9-2,1.9-3.9,2.8-5.9,2.4,1.8,2.5-2.6,4.2-2.8,2.4,1.8,2.5-2.6,4.2-2.8.7,0,1.4,0,2.1,0h4.2c5.4,0,10.7,0,16.1,0,.7,0,1.4,0,2.1,0h2.1c.7,0,1.4,0,2.1,0h2.7v-3.5c0-3.7,0-7.3,0-11,0-2.1.1-4.3,0-6.4,0-.6-.3-1.4-.7-1.7-.2-.2-1.1,0-1.2.4-1.4,4.4-5.4,1.4-7.6,4.8-1.4,2.2-5.3,1.6-8,2.3-3.7,0-7.5,0-11.2,0-2.1-.7-4.2-1.5-5.8-2-.6-2.3-.6-4.6-1.4-5.3-2.3-2.2-3.4-4.8-3.3-8.4,0-3.7,0-7.3-.1-11,0-1.2,0-2.4,0-3.7,0-8.6,0-17.1,0-25.7,0-1.8,0-3.7,0-5.5,1.7-3.8,3.4-7.5,5-11.2,1.4-1.1,3.9-2,4.4-3.8.9-3.2,2.5-2.2,4-2.4,1.7-.3,4,1.3,4.6-2.5,0-.2.9-.1,1.3-.2,1.7-.6,4.2,1.7,5-2.5,0-.2.8-.2,1.3-.3,3.5-.6,7.7.2,10.2-2.2,3.4-3.2,7.2-.6,9.8-2.6,7-5.3,14.3-1.7,21.4-2.3,9.3-.8,18.6-.3,28-.1,3.4,0,7.2-1.4,10.1,2.6.9.1,1.7.2,2.6.3.7,1.7-.8,5.1,2.2,4.5.8,1.2,1.6,2.4,2.4,3.7.2-.3.5-.6.7-.8,4.6,12.4,2.2,25.5,2.4,38.3.4,19.4.1,38.8.1,58.9,3.5,0,7,0,10.4,0,4.9,0,9.8.2,14.7,0,4-.2,7.2,1.7,10.2,5.1.8,1,2.6.4,4,.6.5-2.9,1.2-5.6,1.2-8.4.1-13.9,0-27.8.1-41.7,0-1.6-1.1-4.3,1.7-4.3.1,0,.5-1.2.4-1.6-1.4-4.9,1.7-8.4,2.3-12.8.3-2.1,2.3-3.8,3.5-5.7.2-.3.5-.7.5-1.1-.4-6.5,4.7-7.5,6.6-11.7,1.1-2.5,3-4.3,4.5-6.5,1-.3,2.1-.5,3-1,.5-.3.8-1.2,1.2-1.8,1-1.3,1.9-2.5,2.9-3.8,1.6-1,4.6,2.9,4.9-2.5,1.8-.4,3.3-.7,5.1-2.4,2.3-2.2,6.3-1.6,9.5-2.3,1.1-.2,3,1.2,3-2.1,0-.2,1.2-.6,1.8-.6,2,0,4,.2,5.9,0,1.5-.2,3.8,1.6,4.3-2.3,0-.3,1.5-.4,2.3-.4,4.4,0,8.9.2,13.3-.1,2.1-.2,4.7,1.8,6.5-2.3.6-1.4,4-.9,6.1-.9,14.8,0,29.6-.1,44.4,0,10.3,0,20.6.4,30.8.6,2.6,3.8,7.1,2.2,9.9,7.1,1.8,3.3,2.1,7.1,3.4,9.4,4.1,7,.7,14.5,2.2,21.6,1.1,5.2,0,11.4-.5,17-.1,1.8-1.3,3.4-2,5.1-.7,2-1.3,4-2.2,6.7-3.1,1.3-6.9,2.9-10.6,4.6-.3.1-.6,1.3-.4,1.5.4.5,1,.7,1.5,1.2,2.6,2.6,6.1,3.3,8.4,7.2,2.7,4.6,6.5,8.1,9.8,12.1.5,1.5.9,3.1,1.4,4.6.3,1.7-1.4,4.6,1.6,4.7.1,0,.4.5.3.7-.5,7.8,4.3,15.3,1.9,22.7-1.3,4-.6,8.6-2.2,11.3-2.2,3.9-2.8,7.6-3.3,12-.3,2.2-2,5.4-3.5,5.8-3.5.8-3.8,5.3-6.1,7.4-3.1,2.8-5.2,7.1-9.1,9-2.8,1.3-5,4.4-7.7,6.4-1.6,1.2-3.4,1.8-5.1,2.6-3.5,1.6-7,3.1-10.6,4.5-.6.2-1.5-.5-1.4-.4-1.6,1.1-2.6,2.2-3.6,2.3-2.7.3-5.4,0-8,.1-1.4.1-3.6-1.4-4,2.3,0,.3-1.7.4-2.6.4-8,0-16.1,0-24.1,0h-39.3c0-.4-.2-1.4-.4-2.8-2.3,0-4.6.4-6.9-.1-2.3-.5-5.4,2.4-6.7-2.5,0-.3-1.1,0-1.7-.1-2.2-1-4.9,2.5-6.9-2.4-.8-1.9-4.8-1.5-7.3-2.2-1.3-.3-3.2,1.2-3.3-2.2,0-.2-.3-.4-.5-.5-5.3-2.4-9.7-8-13.6-11.8-2.5-2.4-1.1-5.6-3.1-7.7-2.4-2.5-3.7-6.7-5.5-10.2-.3.1-.6.2-.9.4,0,5.8,0,11.7,0,17.5,0,1.2-1,2.3-1.4,3.5-.3.9-.7,1.9-.6,2.8.5,4.3-1.2,7.1-3.6,9.4-1.9,1.8-4.5,2.4-6.3,3.7-7.2,5.1-14.6,2.1-21.8,2.2-37.9.4-75.8.2-113.7.2-3.5,0-6.3-2-8.8-5-.8-.9-2.4-.6-3.1-.7-1.4-3.5-2.8-6.7-4-9.9-.4-1.2-.4-2.6-.4-4,0-11.4,0-22.9,0-34.3-.4-.2-.8-.3-1.2-.5-.3,1.2-.9,2.4-.9,3.6.1,4.1-2,6.5-3.6,9.5-1,2-1.3,4.5-2.1,6.7-.5,1.6-1.1,3.2-2,4.6-1.6,2.5-3.3,4.7-5,7.1-.5.8-1,1.7-1.5,2.5h0c-1.5.6-3.1,1.1-4.5,2-.5.3-.7,1.7-1,2.6-1.8,0-2.9.8-4.3,2.6-2.6,3.3-5.8,5.8-9.9,5.9-2.2,0-5.3.2-6.4,1.9-2.4,3.7-6.1.8-7.6,2.8-3.4,4.3-7.6.5-10.5,2.7-6.6,4.9-13.5,1.6-20.2,2.9-5.6,1.1-11.4-.3-17.2-.4-8-.1-16,0-24.1,0-2.2,0-4.9,1-6.5-.2-5-3.8-10.6-.9-15.3-3.1-2.5-1.1-4.4-2-6.9-1.5-.5.1-1.3-1.3-1.9-2-.5-.5-1-1.3-1.6-1.5-2.4-.7-5-.9-7.2-2-1.7-.9-3-3-4.5-4.5-.2-.3-.6-.8-.7-.8-2.4,1.2-3.5-1.4-4.8-2.9-3-3.7-5.7-7.8-8.5-11.7-3.9-5.3-5.9-11.6-5.6-19,0-.7-.7-1.4-1.1-2.2-.3.8-.9,1.6-.9,2.3,0,8.6,0,17.1,0,25.7,0,4.4-1.7,7.5-3.7,10.7-.6.9-.5,2.5-.7,3.9-1,.3-5.9,4.1-7.7,5.6-.7.6-1.8.4-2.7.4-44.9,0-89.8,0-134.6,0-1.3,0-3.1,1.1-3.4-2.2,0-.5-2.5-.5-3.9-.7-1.1-.9-2.3-1.8-3.4-2.7ZM9.6,159.3c1.1-2.1,2.1-3.4,2-4.1-.4-1.9-1.4-3.6-2.2-5.4-.3.2-.6.5-1,.7.3,2.4.7,4.8,1.2,8.8ZM514.4,141.4c-.1-.3-.3-.5-.4-.8-.3.4-.6.9-1,1.3.1.2.2.3.3.5l1-1.1ZM2,176.9" style="fill:#834a00;"/><path d="M.7,172.7c.2,0,.4,0,.5,0,.7,1.2,1.5,2.5,2.2,3.7-.9.6-1.8,1.2-2.7,1.8,0-1.8,0-3.6,0-5.5Z" style="fill:#834a00;"/><path d="M3.4,176.3c-.7-1.2-1.5-2.5-2.2-3.7-.2-1.5-.3-3-.5-4.5,2,1.2.3-2.1,2.1-5.4,1.8-3.1,5,.2,1.9-1,.3-2.5,1.3-3.3,2.9-2.1.9.6,1.6,1.7,2.4,2.6.8-.4,1.7-.9,2.6-1.3.2.4.5.8.7,1.2-1.2,1.5-2.4,2.9-3.6,4.4,0,0,.2.2.3.3-.8,1.3-1.8,2.5-2.4,3.9-.8,1.8-1.4,3.8-2.1,5.8h-2.1Z" style="fill:#834a00;"/><path d="M9.6,159.3c-.5-4-.9-6.4-1.2-8.8.3-.2.6-.5,1-.7.8,1.8,1.8,3.5,2.2,5.4.2.7-.9,2-2,4.1Z" style="fill:#834a00;"/></svg>